<?xml version="1.0" encoding="UTF-8"?>
<!DOCTYPE svg PUBLIC "-//W3C//DTD SVG 1.1//EN" "http://www.w3.org/Graphics/SVG/1.1/DTD/svg11.dtd">
<!-- Creator: CorelDRAW -->
<svg xmlns="http://www.w3.org/2000/svg" xml:space="preserve" width="200px" height="196px" style="shape-rendering:geometricPrecision; text-rendering:geometricPrecision; image-rendering:optimizeQuality; fill-rule:evenodd; clip-rule:evenodd"
viewBox="0 0 200 195.462"
 xmlns:xlink="http://www.w3.org/1999/xlink">
 <defs>
  <style type="text/css">
   <![CDATA[
    .fil0 {fill:none}
    .fil1 {fill:#0193CF}
    .fil4 {fill:#6FB43F}
    .fil5 {fill:#A51984}
    .fil2 {fill:#E31351}
    .fil3 {fill:#FFC324}
    .fil6 {fill:white;fill-rule:nonzero}
   ]]>
  </style>
 </defs>
 <g id="Capa_x0020_1">
  <metadata id="CorelCorpID_0Corel-Layer"/>
  <g id="_100826544">
   <rect id="_46770320" class="fil0" width="200" height="195.462"/>
   <g>
    <rect id="_47405448" class="fil1" x="90.2743" y="10.0574" width="103.225" height="95.9493"/>
    <rect id="_47487656" class="fil2" x="4.70176" y="77.0807" width="116.693" height="108.468"/>
    <circle id="_47487536" class="fil3" cx="64.6578" cy="63.9342" r="60.0317"/>
    <circle id="_47499216" class="fil4" cx="114.035" cy="112.163" r="79.6721"/>
    <circle id="_47462384" class="fil5" cx="79.1107" cy="133.151" r="52.7803"/>
    <g>
     <path id="_47478936" class="fil6" d="M34.7807 141.346c1.64738,-0.0758897 3.31357,1.25884 3.74269,1.4789l1.889 -6.01579c-4.34009,-2.59293 -15.8303,-3.2362 -16.642,8.04896 -0.753612,10.4762 11.331,12.6622 16.9515,8.30305l-2.37964 -5.60632c-0.51178,0.187927 -1.97863,1.05802 -3.68456,1.05802 -2.35998,0 -3.58013,-1.87547 -3.58013,-3.75474 0,-1.90612 1.2582,-3.39918 3.70316,-3.51207z"/>
     <path id="_48527528" class="fil6" d="M61.9484 144.831c0,-4.91296 -3.58267,-9.82592 -10.7478,-9.82592 -7.16513,0 -10.7476,4.91296 -10.7476,9.82592 0,4.91296 3.58246,9.83036 10.7476,9.83036 7.16513,0 10.7478,-4.9174 10.7478,-9.83036zm-14.2451 0c0,-2.04035 1.16583,-4.10756 3.49727,-4.10756 2.33165,0 3.49727,2.0672 3.49727,4.10756 0,2.04035 -1.16561,4.10756 -3.49727,4.10756 -2.33144,0 -3.49727,-2.0672 -3.49727,-4.10756z"/>
     <polygon id="_100842568" class="fil6" points="70.2591,135.263 63.748,135.263 63.748,154.431 76.5712,154.431 76.5712,149.626 70.2591,149.626 "/>
     <path id="_100809360" class="fil6" d="M99.1147 144.958c0,-4.95249 -3.58267,-9.90519 -10.7478,-9.90519 -7.16492,0 -10.7476,4.9527 -10.7476,9.90519 0,4.9527 3.58267,9.90984 10.7476,9.90984 7.16513,0 10.7478,-4.95714 10.7478,-9.90984zm-14.2451 0c0,-2.05684 1.16583,-4.14074 3.49727,-4.14074 2.33144,0 3.49727,2.0839 3.49727,4.14074 0,2.05684 -1.16583,4.14074 -3.49727,4.14074 -2.33144,0 -3.49727,-2.0839 -3.49727,-4.14074z"/>
     <polygon id="_100809504" class="fil6" points="118.548,154.431 125.087,154.431 121.391,135.263 114.823,135.263 112.264,143.719 109.79,135.263 103.109,135.263 99.2986,154.431 105.838,154.431 107.601,144.74 110.53,154.431 114.226,154.431 116.899,144.74 "/>
     <path id="_48661416" class="fil6" d="M136.876 135.301l-9.95149 0 0 19.1686 10.8045 0c4.17964,0 5.92384,-2.14774 5.92384,-5.55728 0,-2.65783 -1.8129,-4.14751 -3.97375,-4.57706 1.42161,-0.349008 2.91192,-1.57085 2.91192,-3.98706 0,-2.95314 -2.27458,-5.04719 -5.71498,-5.04719zm-3.41208 4.10756l1.08064 0c0.938157,0 1.5068,0.536935 1.5068,1.39603 0,0.859097 -0.540106,1.39603 -1.5068,1.39603l-1.08064 0 0 -2.79206zm0 7.32917l1.67761 0c0.938369,0 1.62074,0.456395 1.62074,1.36919 0,0.91279 -0.682373,1.39603 -1.62074,1.39603l-1.67761 0 0 -2.76522z"/>
     <polygon id="_47479168" class="fil6" points="152.493,135.317 145.953,135.317 145.953,154.485 152.493,154.485 "/>
     <path id="_48453728" class="fil6" d="M160.898 135.427l-6.42568 18.8437 6.45401 0 0.995233 -2.71829 5.54439 0 0.995233 2.71829 6.42568 0 -6.42568 -18.8437 -7.56318 0zm3.78159 7.9439l1.33642 3.98516 -2.7297 0 1.39328 -3.98516z"/>
     <path id="_48489872" class="fil6" d="M68.9937 68.06c6.747,-0.310957 13.9806,5.97288 15.7386,6.87425l8.26838 -24.6417c-18.1051,-13.9745 -65.782,-14.0715 -69.1072,32.1533 -3.0859,42.9121 46.4138,51.8663 69.4361,34.0106l-8.22336 -23.6484c-2.09637,0.769678 -9.99503,6.89243 -16.8598,6.07688 -9.59846,-1.14046 -15.6018,-8.76114 -15.6018,-16.459 0,-7.80776 6.33415,-13.9045 16.3491,-14.366z"/>
     <path id="_48454200" class="fil6" d="M175.952 83.7201c0,-20.0235 -14.3195,-40.0471 -42.9582,-40.0471 -28.6385,0 -42.9578,20.0237 -42.9578,40.0471 0,20.0235 14.3193,40.0651 42.9578,40.0651 28.6387,0 42.9582,-20.0416 42.9582,-40.0651zm-56.9363 0c0,-8.31573 4.65929,-16.741 13.9781,-16.741 9.319,0 13.9785,8.42524 13.9785,16.741 0,8.31573 -4.6595,16.741 -13.9785,16.741 -9.31879,0 -13.9781,-8.42524 -13.9781,-16.741z"/>
    </g>
   </g>
  </g>
 </g>
</svg>
