<svg width="135" height="27" viewBox="0 0 135 27" fill="none" xmlns="http://www.w3.org/2000/svg">
<path fill-rule="evenodd" clip-rule="evenodd" d="M21.5799 9.28215L19.8619 9.92869L19.6971 10.3888L19.3125 10.6377C19.2026 9.22067 19.1327 8.65841 19.1028 8.65841L19.724 8.65048L20.8657 7.26518L19.2026 7.97419L19.0538 8.45612L17.4217 9.68375C17.4577 9.98818 17.5516 10.9094 17.4886 11.8128L17.8492 11.5708C18.005 18.3188 14.8986 20.8584 14.8986 20.8584C14.1126 20.4974 13.9098 20.2337 13.9098 20.2337C16.7445 17.0991 16.6137 12.5664 16.6087 12.4048L16.311 12.6001C16.311 12.6001 16.4329 11.1662 16.354 10.488L15.8296 10.8816C15.8176 10.4186 15.7906 10.0328 15.7586 9.76507C16.0743 9.7849 16.4009 9.7383 16.6686 9.54691C16.9503 9.34363 17.1001 8.74469 17.148 8.48785C17.194 8.23102 17.139 8.14475 16.9822 8.04361C16.8254 7.94345 16.4958 7.64695 16.3619 7.51309C16.3619 7.51309 16.6316 7.39806 17.2639 7.69257C17.9461 8.01286 18.4645 7.85619 19.0468 7.00041L18.3476 7.10156L18.4096 6.6226C18.4206 6.62756 18.4335 6.6345 18.4455 6.64145C18.5424 6.70788 18.873 6.82886 19.0288 6.8596C19.1867 6.89034 19.1827 6.86853 19.2806 6.92703C19.3794 6.98455 19.4643 7.00835 19.5173 6.98455C19.5173 6.98455 19.9058 7.20271 20.0626 6.98455C20.0626 6.98455 20.2135 7.07379 20.2894 7.10156C20.4062 7.1442 20.596 7.21064 20.658 7.19874C20.7209 7.18684 20.8697 7.24931 20.8937 7.26121C21.1404 7.38417 21.2902 7.31972 21.3242 7.26121C21.3611 7.20271 21.1714 7.00835 21.0255 6.88737C20.8807 6.76639 20.7548 6.74358 20.7548 6.74358C20.8028 6.71185 20.7908 6.66524 20.6959 6.5522C20.602 6.43915 20.2934 6.28744 20.2934 6.28744C20.2964 6.1972 19.9428 5.97904 19.733 5.82038C19.5193 5.65974 19.6062 5.66866 19.3824 5.43959C19.1597 5.20855 18.1349 4.40235 17.6245 4.04041C17.1151 3.67847 15.7147 2.6204 14.5181 2.23763C13.3225 1.85487 12.6143 1.94114 12.1099 2.25251C11.6025 2.56487 11.7273 2.98135 11.8202 3.23818C11.9081 3.49601 12.0819 3.81928 12.1838 4.0176C12.2857 4.21593 12.2028 4.21196 12.1558 4.24369C12.1099 4.27344 12.1588 4.35277 12.1139 4.34385C12.0679 4.33691 12.038 4.39541 11.98 4.46185C11.9501 4.49457 11.8632 4.52432 11.7503 4.54713C11.7273 4.45293 11.7863 4.38252 11.7863 4.38252C11.7074 4.33691 11.5715 4.32203 11.5715 4.32203C11.5875 4.28832 11.6514 4.2665 11.6514 4.2665C11.5645 4.24369 11.3997 4.27344 11.3997 4.27344C11.4257 4.2308 11.4497 4.22485 11.4497 4.22485C11.2948 4.1723 11.157 4.29724 11.1011 4.35773C11.0321 4.23576 10.9462 4.15048 10.8593 4.06917C10.7645 3.9829 10.7175 3.85894 10.6166 3.76077C10.6166 3.76077 10.6985 3.63781 10.6396 3.51386C10.5817 3.39189 10.4219 3.29272 10.328 3.26992C10.328 3.26992 10.4109 3.22728 10.3999 3.13506C10.3879 3.04184 10.299 3.00614 10.2051 3.03589C10.1112 3.06465 9.99935 3.06465 9.92843 3.12911C9.92843 3.12911 9.85152 3.13704 9.79059 3.1301C9.8675 2.87327 9.90646 2.52322 9.46397 2.25251C8.95956 1.94114 8.25238 1.85487 7.05577 2.23763C5.86016 2.6204 4.45879 3.67847 3.95038 4.04041C3.44098 4.40235 2.41517 5.20855 2.19343 5.43959C1.96769 5.66866 2.05459 5.65974 1.84383 5.82038C1.63108 5.97904 1.27849 6.1972 1.28249 6.28744C1.28249 6.28744 0.972846 6.43915 0.877957 6.5522C0.785065 6.66524 0.77208 6.71185 0.819025 6.74358C0.819025 6.74358 0.69417 6.76639 0.54834 6.88737C0.403508 7.00835 0.214728 7.20271 0.250686 7.26121C0.286644 7.31972 0.434472 7.38417 0.681185 7.26121C0.705158 7.24931 0.853985 7.18684 0.916911 7.19874C0.979838 7.21064 1.16862 7.1442 1.28648 7.10156C1.36239 7.07379 1.51322 6.98455 1.51322 6.98455C1.67004 7.20271 2.05858 6.98455 2.05858 6.98455C2.10952 7.00835 2.19642 6.98455 2.29331 6.92703C2.3922 6.86853 2.3882 6.89034 2.54402 6.8596C2.70283 6.82886 3.03245 6.70888 3.12934 6.64145C3.14332 6.63153 3.15731 6.62558 3.16929 6.62161L3.23222 7.10156L2.53403 7.00041C3.11436 7.85619 3.63175 8.01286 4.31396 7.69257C4.94722 7.39806 5.21691 7.51309 5.21691 7.51309C5.08406 7.64695 4.75345 7.94345 4.59663 8.04361C4.44081 8.14475 4.38588 8.23102 4.43282 8.48785C4.47877 8.74469 4.6276 9.34363 4.91226 9.54691C5.17895 9.7383 5.50458 9.7849 5.82121 9.76507C5.78924 10.0328 5.76228 10.4186 5.74929 10.8816L5.2219 10.485C5.142 11.1613 5.26286 12.6001 5.26286 12.6001L4.9652 12.4048C4.95821 12.5664 4.82936 17.0991 7.66506 20.2337C7.66506 20.2337 7.4603 20.4974 6.67621 20.8584C6.67621 20.8584 3.56783 18.3188 3.72664 11.5708L4.08722 11.8128C4.0233 10.9074 4.11719 9.98223 4.15215 9.68078L2.52604 8.45612L2.37522 7.97419L0.713148 7.26518L1.85782 8.65048L2.4781 8.65841C2.44713 8.65841 2.37522 9.22067 2.26634 10.6377L1.88279 10.3888L1.71698 9.92869L0.000976562 9.28215L1.21556 10.6288L1.81986 10.5911C1.81986 10.5911 1.20158 16.5646 3.2442 19.7795C4.94623 22.4539 7.42035 22.4747 9.67373 20.9724C9.59382 21.2342 9.32314 22.0117 8.56002 23.4277C8.56002 23.4277 8.99951 23.4277 9.46996 23.507C9.46996 23.507 9.37707 23.8957 9.32813 24.0137C9.28018 24.1337 9.28718 24.3311 9.51891 24.342C9.75164 24.3489 10.0533 24.3777 10.0533 24.3777C10.0533 24.3777 10.0123 24.6583 10.0063 24.807C9.99935 25.0083 9.97937 25.0926 10.7874 25.1264C11.6334 25.0926 11.5785 25.0083 11.5705 24.807C11.5645 24.6583 11.5266 24.3777 11.5266 24.3777C11.5266 24.3777 11.8282 24.3489 12.06 24.342C12.2917 24.3311 12.2997 24.1337 12.2507 24.0137C12.2028 23.8957 12.1069 23.507 12.1069 23.507C12.5783 23.4277 13.0168 23.4277 13.0168 23.4277C12.2547 22.0057 11.982 21.2312 11.9021 20.9724C14.1565 22.4747 16.6336 22.4559 18.3357 19.7795C20.3783 16.5646 19.76 10.5911 19.76 10.5911L20.3643 10.6288L21.5799 9.28215ZM11.7477 6.96984C11.8156 6.66938 11.8696 6.41552 11.9315 6.45915C11.9934 6.50179 12.1053 6.50675 12.1433 6.45618C12.1832 6.40362 12.1952 6.39767 12.2262 6.45023C12.2581 6.50477 12.4459 6.59501 12.5718 6.38082C12.6976 6.16662 12.6626 6.2757 12.6976 6.35801C12.7346 6.43932 12.8315 6.47403 12.9413 6.38875C13.0502 6.30347 13.1361 6.22811 13.215 6.18943C13.2929 6.15175 13.2969 6.17059 13.3399 6.09324C13.3838 6.01491 13.4537 5.97921 13.4577 5.92863C13.4617 5.87806 13.4108 5.82055 13.4857 5.78088C13.5616 5.74221 13.5956 5.71444 13.6625 5.74617C13.7304 5.77692 13.7484 5.71444 13.7833 5.75708C13.8183 5.80071 13.8643 5.80468 13.9092 5.75708C13.9521 5.71048 13.9841 5.6371 14.0351 5.72337C14.086 5.80865 14.1989 5.82749 14.2228 5.78485C14.2468 5.74221 14.2658 5.73824 14.2977 5.80468C14.3297 5.87112 14.4426 5.92169 14.5654 5.90186C14.5654 5.90186 14.6773 6.05755 14.8161 6.03474C14.954 6.01094 15.0079 5.94153 15.0109 5.84831C15.0159 5.75411 14.964 5.43976 15.0579 5.50918C15.1528 5.57859 15.1498 5.54785 15.1757 5.49232C15.2037 5.43976 15.2466 5.49628 15.2946 5.48439C15.3415 5.47447 15.3325 5.41497 15.4115 5.49232C15.4914 5.57165 15.4974 5.60933 15.5723 5.62916C15.6472 5.648 15.6781 5.66883 15.757 5.75014C15.836 5.83145 15.9219 5.92169 16.0637 5.87112C16.0637 5.87112 16.1526 5.98714 16.2475 5.97921C16.2475 5.97921 16.4393 6.18646 16.5491 6.15572C16.5491 6.15572 16.7369 6.23207 16.7998 6.22513C16.8638 6.21819 16.8747 6.17654 16.9147 6.19736C16.9537 6.22216 16.9387 6.12299 16.9966 6.18943C17.0545 6.25587 17.1614 6.37387 17.2283 6.35404C17.2283 6.35404 17.3852 6.48593 17.506 6.5008C17.6279 6.51667 17.6638 6.55237 17.7028 6.55237C17.7417 6.55237 17.7228 6.51369 17.7927 6.56823C17.8626 6.62277 17.9665 6.64955 18.0324 6.62277C18.1003 6.59501 18.1263 6.59897 18.1872 6.60691C18.2062 6.60889 18.2312 6.60691 18.2591 6.60393C18.0624 6.83796 17.8047 7.0224 17.3262 6.87564C16.692 6.68029 16.5012 6.77449 16.3703 6.90638C16.2365 7.03826 15.9468 7.42103 15.8669 7.662C15.79 7.90395 15.829 8.09038 16.2984 8.63677C16.2984 8.63677 15.6871 8.67445 14.8791 8.41762C14.071 8.16078 13.3249 8.06757 12.5718 8.40274C12.4429 8.46125 12.321 8.5138 12.2072 8.57033C12.1243 8.48604 11.9155 8.27284 11.8376 8.17566C11.8376 8.17566 11.8885 7.92676 11.8856 7.78298C11.8806 7.61936 11.8736 7.54201 11.8156 7.4597C11.7547 7.37938 11.6818 7.26931 11.7477 6.96984ZM14.982 9.6076C14.6244 9.83072 14.0191 10.0935 13.1221 10.0935C12.422 10.0935 11.8826 9.93286 11.499 9.75535C11.6578 9.65818 12.2761 9.31011 13.0522 9.29028C13.9542 9.26648 14.3457 9.39044 14.7782 9.54017C14.8371 9.56 14.9061 9.58281 14.982 9.6076ZM11.2624 8.33424C11.2674 8.33721 11.2734 8.3382 11.2784 8.34019C11.4362 8.40266 11.6021 8.37886 11.6021 8.37886C11.653 8.41059 11.8767 8.61883 11.9576 8.69816C11.7309 8.82013 11.5281 8.94904 11.3324 9.11465C11.2844 8.92128 11.2155 8.60594 11.2365 8.49984C11.2465 8.44133 11.2565 8.38481 11.2624 8.33424ZM10.1457 4.07509C10.2346 4.1336 10.4044 4.23375 10.4643 4.37853C10.4813 4.42216 10.4933 4.46381 10.5052 4.50348C10.3804 4.47274 10.2835 4.47075 10.2106 4.48166C10.0827 4.27739 9.9419 4.14352 9.80805 4.05625C9.94789 4.03642 10.0687 4.02353 10.1457 4.07509ZM9.3902 4.01784C9.3922 4.01288 9.3952 4.0099 9.39719 4.00296C9.50507 4.16162 9.7388 4.43432 10.1114 4.51464C10.0724 4.53348 10.0424 4.55728 10.0215 4.5791C9.8197 4.55232 9.64191 4.51464 9.59396 4.46209C9.53503 4.39565 9.50806 4.33714 9.46112 4.34408C9.41417 4.35301 9.46412 4.27368 9.41817 4.24393C9.37122 4.2122 9.29032 4.21616 9.3902 4.01784ZM9.23568 6.51454C9.25066 6.61965 9.28063 6.73567 9.33457 6.8507C9.32058 6.87648 9.3056 6.90325 9.29261 6.93102C9.26065 6.69105 9.16277 6.53536 9.14279 6.5066C9.17575 6.51652 9.20671 6.5185 9.23568 6.51454ZM5.28105 8.63677C5.75051 8.09038 5.78946 7.90395 5.71055 7.662C5.63265 7.42103 5.34198 7.03826 5.20814 6.90638C5.07629 6.77449 4.88751 6.68029 4.25125 6.87564C3.77381 7.0224 3.5181 6.83895 3.31934 6.60492C3.3463 6.6079 3.37028 6.60889 3.38826 6.60691C3.44918 6.59897 3.47416 6.59501 3.54208 6.62277C3.609 6.64955 3.71088 6.62277 3.7818 6.56823C3.85172 6.51369 3.83174 6.55237 3.87169 6.55237C3.91165 6.55237 3.94661 6.51667 4.06747 6.5008C4.18932 6.48593 4.34614 6.35404 4.34614 6.35404C4.41306 6.37387 4.51794 6.25587 4.57887 6.18943C4.6368 6.12299 4.62082 6.22216 4.66078 6.19736C4.69873 6.17654 4.71072 6.21819 4.77364 6.22513C4.83557 6.23207 5.02535 6.15572 5.02535 6.15572C5.13422 6.18646 5.328 5.97921 5.328 5.97921C5.42089 5.98714 5.51079 5.87112 5.51079 5.87112C5.65162 5.92169 5.74052 5.83145 5.81743 5.75014C5.89534 5.66883 5.9273 5.648 6.00122 5.62916C6.07713 5.60933 6.08312 5.57165 6.16103 5.49232C6.24094 5.41497 6.23195 5.47447 6.28089 5.48439C6.32684 5.49628 6.36979 5.43976 6.39776 5.49232C6.42572 5.54785 6.42173 5.57859 6.51462 5.50918C6.60851 5.43976 6.55857 5.75411 6.56157 5.84831C6.56756 5.94153 6.6215 6.01094 6.75834 6.03474C6.89618 6.05755 7.01004 5.90186 7.01004 5.90186C7.1299 5.92169 7.24477 5.87112 7.27573 5.80468C7.3077 5.73824 7.32767 5.74221 7.35065 5.78485C7.37362 5.82749 7.48949 5.80865 7.54043 5.72337C7.59037 5.6371 7.62133 5.71048 7.66528 5.75708C7.70823 5.80468 7.75518 5.80071 7.79014 5.75708C7.8251 5.71444 7.84607 5.77692 7.91199 5.74617C7.97792 5.71444 8.01388 5.74221 8.08779 5.78088C8.1627 5.82055 8.11276 5.87806 8.11676 5.92863C8.11975 5.97921 8.19067 6.01491 8.23462 6.09324C8.27857 6.17059 8.28256 6.15175 8.36047 6.18943C8.43738 6.22811 8.52328 6.30347 8.63316 6.38875C8.73504 6.4661 8.82393 6.41651 8.86588 6.35008C8.88187 6.41949 8.90684 6.53253 8.9388 6.53253C8.97276 6.53253 9.00173 6.44527 9.0267 6.38974C9.06066 6.43734 9.09961 6.42544 9.13757 6.44031C9.11959 6.47601 8.84491 7.0224 9.17952 7.51325H9.18052C9.1975 7.51325 9.20849 7.49342 9.22147 7.4597C9.25643 7.77802 9.23745 7.85041 9.23745 7.85041C9.23745 7.85041 9.08563 8.0408 8.97775 8.37795C8.23562 8.05766 7.49748 8.15781 6.7014 8.41167C5.89234 8.6685 5.28105 8.63677 5.28105 8.63677ZM8.71914 9.30201C8.62525 9.57967 8.5024 9.86427 8.33559 10.0904C7.50655 10.0675 6.93822 9.82163 6.59961 9.60743C6.67352 9.58264 6.74344 9.55984 6.80137 9.54C7.23387 9.39027 7.62642 9.26631 8.52936 9.29011C8.59329 9.29111 8.65722 9.29706 8.71914 9.30201ZM6.04717 9.71568C6.11909 9.70378 6.19101 9.69981 6.27391 9.67998C6.50564 9.91103 7.15888 10.4267 8.38546 10.4267C9.97561 10.4267 10.7877 9.66808 10.7877 9.66808C10.7877 9.66808 11.5987 10.4296 13.1899 10.4296C14.4174 10.4296 15.0687 9.91995 15.3004 9.6889C15.3853 9.70973 15.4552 9.70378 15.5272 9.71568C15.7199 11.3023 15.4003 13.5543 15.4003 13.5543H10.7877H6.17403C6.17403 13.5543 5.8544 11.3023 6.04717 9.71568ZM6.17383 13.8275H10.7875H15.4001C15.4001 13.8275 15.2583 15.5797 14.5061 17.0493H10.7875H7.06779C6.31466 15.5797 6.17383 13.8275 6.17383 13.8275ZM10.7878 21.3282C8.02204 19.341 7.20898 17.3082 7.20898 17.3082H10.7878H14.3647C14.3647 17.3082 13.5536 19.341 10.7878 21.3282Z" fill="white"/>
<path fill-rule="evenodd" clip-rule="evenodd" d="M12.5158 13.3409C12.6766 13.337 12.8244 13.2804 12.9483 13.1862C13.0152 13.2081 13.0831 13.22 13.154 13.217C13.4027 13.214 13.6185 13.0534 13.7373 12.8174C13.8502 12.8322 13.9641 12.8174 14.068 12.7618C14.2947 12.6418 14.3976 12.3711 14.3496 12.0964C14.3626 12.0885 14.3716 12.0776 14.3846 12.0687C14.5904 11.8981 14.5864 11.561 14.3786 11.3101C14.3716 11.3021 14.3666 11.2962 14.3586 11.2902C14.4285 11.2377 14.4755 11.1623 14.4755 11.0751C14.4755 10.9194 14.2857 10.7944 14.1129 10.7944C13.9411 10.7944 13.7513 10.9194 13.7513 11.0751V11.0761C13.7513 11.085 13.6435 11.1147 13.5805 11.1683C13.4926 11.2407 13.4697 11.3458 13.4567 11.4608C13.4257 11.4717 13.4057 11.4816 13.3748 11.4985C13.3328 11.5193 13.3019 11.5491 13.2689 11.5808C13.2179 11.5689 13.172 11.562 13.1191 11.5639C13.0442 11.5649 12.9732 11.5808 12.9043 11.6096C12.7795 11.5253 12.6356 11.4767 12.4798 11.4806C12.0313 11.4876 11.6767 11.912 11.6867 12.4257C11.6967 12.9413 12.0693 13.3489 12.5158 13.3409Z" fill="white"/>
<path fill-rule="evenodd" clip-rule="evenodd" d="M7.22962 12.0687C7.2416 12.0776 7.25159 12.0885 7.26557 12.0964C7.21663 12.3711 7.32051 12.6418 7.54525 12.7618C7.64813 12.8174 7.763 12.8322 7.87686 12.8174C7.99573 13.0534 8.21048 13.214 8.45919 13.217C8.5311 13.22 8.59803 13.2081 8.66495 13.1862C8.7888 13.2804 8.93563 13.337 9.09545 13.3409C9.54393 13.3489 9.91549 12.9413 9.92548 12.4257C9.93547 11.912 9.58088 11.4876 9.1314 11.4806C8.97658 11.4767 8.83175 11.5253 8.7069 11.6086C8.63998 11.5808 8.56806 11.5649 8.49215 11.5639C8.43821 11.562 8.38727 11.5689 8.33933 11.5798C8.30537 11.5491 8.26841 11.5193 8.22546 11.4985C8.19649 11.4816 8.16453 11.4697 8.13157 11.4608C8.12158 11.3458 8.1066 11.2407 8.0177 11.1683C7.95577 11.1147 7.83292 11.085 7.83292 11.0761V11.0751C7.83292 10.9194 7.65912 10.7944 7.48732 10.7944C7.31252 10.7944 7.1557 10.9194 7.1557 11.0751C7.1557 11.1623 7.19166 11.2377 7.26158 11.2902C7.25559 11.2962 7.2476 11.3021 7.23961 11.3101C7.03085 11.56 7.02386 11.8981 7.22962 12.0687Z" fill="white"/>
<path fill-rule="evenodd" clip-rule="evenodd" d="M10.8189 16.8529L11.2014 16.2778L11.1305 16.0061L11.4302 16.0468C11.4512 16.1717 11.5321 16.3125 11.6519 16.3304C11.7738 16.3522 11.9745 16.3304 11.9745 16.3304L12.0894 16.1985C11.9476 16.0656 11.7738 15.9525 11.7738 15.9525C11.7328 15.1573 11.593 14.6178 11.4901 14.3312C11.3902 14.0447 11.2564 14.0367 11.0017 14.0704C10.745 14.1042 10.0538 14.5187 10.0538 14.5187L10.0068 14.9173L10.2416 14.9431C10.2416 14.9431 10.1067 15.3903 10.0598 15.5519C10.0128 15.7136 10.0538 15.7046 10.1397 15.7661C10.2276 15.8246 10.5572 15.904 10.5572 15.904L10.4643 16.3185L10.8189 16.8529Z" fill="white"/>
<path fill-rule="evenodd" clip-rule="evenodd" d="M9.91699 11.7993C10.0548 12.5886 10.5662 12.66 10.768 12.655C10.765 12.9337 10.7171 13.1538 10.7171 13.1538L10.9678 13.3244C10.9957 12.9932 10.9897 12.7314 10.9688 12.5222C11.5741 12.4349 11.6969 11.5424 11.6969 11.5424C11.1076 11.8052 10.9838 12.2286 10.9578 12.421C10.9158 12.1017 10.8399 11.9282 10.799 11.8568C11.1825 11.8141 11.4782 11.4929 11.4782 11.1022C11.4782 10.883 11.3853 10.6847 11.2345 10.5468L11.3603 10.3128L11.0936 10.3654L10.9838 10.1631L10.788 10.3198L10.6701 10.1631L10.5443 10.3436L10.3085 10.2107L10.3745 10.4229C10.1218 10.5468 9.94796 10.8047 9.94796 11.1022C9.94796 11.478 10.2246 11.7894 10.5862 11.8518C10.7051 12.0373 10.752 12.2733 10.765 12.4934C10.4364 11.9698 9.91699 11.7993 9.91699 11.7993ZM10.748 11.8447C10.5632 11.8447 10.4134 11.5175 10.4134 11.1129C10.4134 10.7113 10.5632 10.3841 10.748 10.3841C10.9318 10.3841 11.0816 10.7113 11.0816 11.1129C11.0816 11.5175 10.9318 11.8447 10.748 11.8447Z" fill="white"/>
<path fill-rule="evenodd" clip-rule="evenodd" d="M11.4139 18.2891C11.347 18.1255 11.347 17.9638 11.4139 17.8002H10.494C10.4251 17.9638 10.4251 18.1255 10.494 18.2891H11.4139Z" fill="white"/>
<path fill-rule="evenodd" clip-rule="evenodd" d="M10.494 19.4313C10.4251 19.5939 10.4251 19.9211 10.494 20.0857H11.4139C11.347 19.9211 11.347 19.5939 11.4139 19.4313H10.494Z" fill="white"/>
<path fill-rule="evenodd" clip-rule="evenodd" d="M11.6331 18.7788L11.8389 18.4516H10.4315L10.2787 18.288H10.2128H9.69141L9.76332 18.4516H9.90516L10.055 18.7788H11.6331Z" fill="white"/>
<path fill-rule="evenodd" clip-rule="evenodd" d="M11.6242 20.2507H11.5723H11.3396H11.1408H10.9081H10.7582H10.5095H10.4326L10.3477 20.0871H10.0391L10.133 20.2725L10.3857 20.4114H11.5992L11.844 20.2706L11.8779 20.0871H11.6792L11.6242 20.2507Z" fill="white"/>
<path fill-rule="evenodd" clip-rule="evenodd" d="M49.1367 8.66314C47.8083 7.37006 45.8416 6.68385 44.1156 6.68385C39.7556 6.68385 37.2316 9.92945 37.2575 13.8335C37.2575 17.211 39.2772 20.4823 44.1156 20.4823C45.7087 20.4823 47.17 20.0857 48.6583 18.8462V15.0998H43.4763V12.4621H51.4221V20.0331C49.5612 22.065 47.2499 23.2519 44.1156 23.2519C37.2855 23.2519 34.3359 18.741 34.3359 13.8335C34.3359 8.50448 37.763 3.9668 44.1156 3.9668C46.5857 3.9668 49.0838 4.89 50.9966 6.76318L49.1367 8.66314Z" fill="white"/>
<path fill-rule="evenodd" clip-rule="evenodd" d="M72.8743 13.6619C72.8743 18.6686 69.8059 23.2519 63.3224 23.2519C56.837 23.2519 53.7695 18.5635 53.7695 13.6887C53.7695 8.04635 57.7449 3.9668 63.3744 3.9668C69.7529 3.99357 72.8743 8.65521 72.8743 13.6619ZM63.3228 20.5232C67.9654 20.5232 69.9121 17.2657 69.9121 13.7156C69.9121 10.2985 67.9384 6.74848 63.3747 6.66915C59.0527 6.66915 56.7314 9.66188 56.7314 13.7156C56.7854 16.9999 58.7052 20.5232 63.3228 20.5232Z" fill="white"/>
<path fill-rule="evenodd" clip-rule="evenodd" d="M84.5729 23.2535H81.3487L73.333 4.02686H76.804L82.9468 19.5884L89.1177 4.02686H92.5616L84.5729 23.2535Z" fill="white"/>
<path fill-rule="evenodd" clip-rule="evenodd" d="M94.577 21.3114C94.577 23.8975 90.6846 23.8975 90.6846 21.3114C90.6846 18.7549 94.577 18.7549 94.577 21.3114Z" fill="white"/>
<path fill-rule="evenodd" clip-rule="evenodd" d="M113.434 20.4898C111.506 22.3758 109.019 23.2524 106.397 23.2524C99.599 23.2524 96.5506 18.6037 96.5226 13.716C96.4966 8.82824 99.7079 3.96729 106.397 3.96729C108.912 3.96729 111.346 4.89743 113.246 6.7835L111.24 8.69536C109.902 7.39435 108.135 6.7835 106.397 6.7835C101.634 6.7835 99.4672 10.2631 99.4932 13.6892C99.5191 17.0895 101.553 20.463 106.397 20.463C108.135 20.463 110.063 19.746 111.373 18.444L113.434 20.4898Z" fill="white"/>
<path fill-rule="evenodd" clip-rule="evenodd" d="M135 13.6932C135 18.6841 131.934 23.2535 125.473 23.2535C119.01 23.2535 115.95 18.579 115.95 13.719C115.95 8.09351 119.914 4.02686 125.527 4.02686C131.884 4.05363 135 8.70138 135 13.6932ZM125.473 20.5332C130.105 20.5332 132.043 17.2846 132.043 13.7455C132.043 10.3383 130.075 6.79915 125.527 6.72081C121.217 6.72081 118.902 9.70462 118.902 13.7455C118.956 17.0198 120.87 20.5332 125.473 20.5332Z" fill="white"/>
<mask id="mask0" style="mask-type:alpha" maskUnits="userSpaceOnUse" x="0" y="0" width="135" height="27">
<path fill-rule="evenodd" clip-rule="evenodd" d="M0 27H135V0H0V27Z" fill="white"/>
</mask>
<g mask="url(#mask0)">
<path fill-rule="evenodd" clip-rule="evenodd" d="M26.5637 11.5723H28.6543V0.000976562H26.5637V11.5723Z" fill="#FBD015"/>
<path fill-rule="evenodd" clip-rule="evenodd" d="M26.5635 19.2856H28.654V11.5718H26.5635V19.2856Z" fill="#05569E"/>
<path fill-rule="evenodd" clip-rule="evenodd" d="M26.5635 26.9995H28.654V19.2847H26.5635V26.9995Z" fill="#D11F3E"/>
</g>
</svg>
