<svg xmlns="http://www.w3.org/2000/svg" width="18.358" height="18.358" viewBox="0 0 18.358 18.358">
  <g id="Grupo_12913" data-name="Grupo 12913" transform="translate(7646 10795.358)">
    <g id="facebook" transform="translate(-7646 -10795.358)">
      <path id="Trazado_7488" data-name="Trazado 7488" d="M17.345,0H1.013A1.013,1.013,0,0,0,0,1.013V17.346a1.013,1.013,0,0,0,1.013,1.013H17.345a1.013,1.013,0,0,0,1.013-1.013h0V1.013A1.013,1.013,0,0,0,17.345,0Zm0,0" fill="#4267b2"/>
      <path id="Trazado_7489" data-name="Trazado 7489" d="M212.253,92.91v-7.1h2.393L215,83.032h-2.752v-1.77c0-.8.223-1.35,1.374-1.35h1.459V77.433a19.609,19.609,0,0,0-2.138-.109,3.338,3.338,0,0,0-3.563,3.662v2.045H207v2.779h2.384v7.1Zm0,0" transform="translate(-199.578 -74.552)" fill="#fff"/>
    </g>
  </g>
</svg>
