<?xml version="1.0" encoding="UTF-8"?>
<svg xmlns="http://www.w3.org/2000/svg" xmlns:xlink="http://www.w3.org/1999/xlink" width="18px" height="18px" viewBox="0 0 18 18" version="1.1">
<defs>
<linearGradient id="linear0" gradientUnits="userSpaceOnUse" x1="42.966156" y1="469.029648" x2="469.033748" y2="42.962056" gradientTransform="matrix(0.0351562,0,0,0.0351562,0,0)">
<stop offset="0" style="stop-color:rgb(100%,83.921569%,0%);stop-opacity:1;"/>
<stop offset="0.5" style="stop-color:rgb(100%,0.392157%,0%);stop-opacity:1;"/>
<stop offset="1" style="stop-color:rgb(84.705882%,0%,72.54902%);stop-opacity:1;"/>
</linearGradient>
<linearGradient id="linear1" gradientUnits="userSpaceOnUse" x1="163.042996" y1="348.953808" x2="348.953908" y2="163.042896" gradientTransform="matrix(0.0351562,0,0,0.0351562,0,0)">
<stop offset="0" style="stop-color:rgb(100%,39.215686%,0%);stop-opacity:1;"/>
<stop offset="0.5" style="stop-color:rgb(100%,0.392157%,0%);stop-opacity:1;"/>
<stop offset="1" style="stop-color:rgb(99.215686%,0%,33.72549%);stop-opacity:1;"/>
</linearGradient>
<linearGradient id="linear2" gradientUnits="userSpaceOnUse" x1="370.929133" y1="141.067671" x2="414.372785" y2="97.624019" gradientTransform="matrix(0.0351562,0,0,0.0351562,0,0)">
<stop offset="0" style="stop-color:rgb(95.294118%,0%,44.705882%);stop-opacity:1;"/>
<stop offset="1" style="stop-color:rgb(89.803922%,0%,59.215686%);stop-opacity:1;"/>
</linearGradient>
</defs>
<g id="surface1">
<path style=" stroke:none;fill-rule:nonzero;fill:url(#linear0);" d="M 17.945312 5.289062 C 17.902344 4.332031 17.75 3.675781 17.527344 3.105469 C 17.300781 2.503906 16.945312 1.960938 16.488281 1.511719 C 16.039062 1.054688 15.496094 0.699219 14.894531 0.472656 C 14.324219 0.25 13.667969 0.0976562 12.710938 0.0546875 C 11.75 0.0117188 11.445312 0 9 0 C 6.554688 0 6.25 0.0117188 5.289062 0.0546875 C 4.332031 0.0976562 3.675781 0.25 3.105469 0.472656 C 2.503906 0.699219 1.960938 1.054688 1.511719 1.511719 C 1.054688 1.960938 0.699219 2.503906 0.472656 3.105469 C 0.25 3.675781 0.0976562 4.332031 0.0546875 5.289062 C 0.0117188 6.25 0 6.554688 0 9 C 0 11.445312 0.0117188 11.75 0.0546875 12.710938 C 0.0976562 13.667969 0.25 14.324219 0.472656 14.894531 C 0.699219 15.496094 1.054688 16.039062 1.511719 16.488281 C 1.960938 16.945312 2.503906 17.300781 3.105469 17.527344 C 3.675781 17.75 4.332031 17.902344 5.289062 17.945312 C 6.25 17.988281 6.554688 18 9 18 C 11.445312 18 11.75 17.988281 12.710938 17.945312 C 13.667969 17.902344 14.324219 17.75 14.894531 17.527344 C 16.105469 17.058594 17.058594 16.105469 17.527344 14.894531 C 17.75 14.324219 17.902344 13.667969 17.945312 12.710938 C 17.988281 11.75 18 11.445312 18 9 C 18 6.554688 17.988281 6.25 17.945312 5.289062 Z M 16.324219 12.636719 C 16.285156 13.515625 16.140625 13.992188 16.015625 14.308594 C 15.714844 15.09375 15.09375 15.714844 14.308594 16.015625 C 13.992188 16.140625 13.515625 16.285156 12.636719 16.324219 C 11.6875 16.371094 11.402344 16.378906 9 16.378906 C 6.597656 16.378906 6.3125 16.371094 5.363281 16.324219 C 4.484375 16.285156 4.007812 16.140625 3.691406 16.015625 C 3.300781 15.871094 2.949219 15.640625 2.65625 15.34375 C 2.359375 15.050781 2.128906 14.699219 1.984375 14.308594 C 1.859375 13.992188 1.714844 13.515625 1.675781 12.636719 C 1.628906 11.6875 1.621094 11.402344 1.621094 9 C 1.621094 6.597656 1.628906 6.3125 1.675781 5.363281 C 1.714844 4.484375 1.859375 4.007812 1.984375 3.691406 C 2.128906 3.300781 2.359375 2.949219 2.65625 2.65625 C 2.949219 2.359375 3.300781 2.128906 3.691406 1.984375 C 4.007812 1.859375 4.484375 1.714844 5.363281 1.675781 C 6.3125 1.628906 6.597656 1.621094 9 1.621094 C 11.402344 1.621094 11.6875 1.628906 12.636719 1.675781 C 13.515625 1.714844 13.992188 1.859375 14.308594 1.984375 C 14.699219 2.128906 15.050781 2.359375 15.34375 2.65625 C 15.640625 2.949219 15.871094 3.300781 16.015625 3.691406 C 16.140625 4.007812 16.285156 4.484375 16.324219 5.363281 C 16.367188 6.3125 16.378906 6.597656 16.378906 9 C 16.378906 11.402344 16.371094 11.6875 16.324219 12.636719 Z M 16.324219 12.636719 "/>
<path style=" stroke:none;fill-rule:nonzero;fill:url(#linear1);" d="M 9 4.378906 C 6.449219 4.378906 4.378906 6.449219 4.378906 9 C 4.378906 11.550781 6.449219 13.621094 9 13.621094 C 11.550781 13.621094 13.621094 11.550781 13.621094 9 C 13.621094 6.449219 11.550781 4.378906 9 4.378906 Z M 9 12 C 7.34375 12 6 10.65625 6 9 C 6 7.34375 7.34375 6 9 6 C 10.65625 6 12 7.34375 12 9 C 12 10.65625 10.65625 12 9 12 Z M 9 12 "/>
<path style=" stroke:none;fill-rule:nonzero;fill:url(#linear2);" d="M 14.882812 4.195312 C 14.882812 4.792969 14.402344 5.277344 13.804688 5.277344 C 13.207031 5.277344 12.722656 4.792969 12.722656 4.195312 C 12.722656 3.597656 13.207031 3.117188 13.804688 3.117188 C 14.402344 3.117188 14.882812 3.597656 14.882812 4.195312 Z M 14.882812 4.195312 "/>
</g>
</svg>
